<?xml version="1.0" standalone="no"?>
<!DOCTYPE svg PUBLIC "-//W3C//DTD SVG 20010904//EN"
 "http://www.w3.org/TR/2001/REC-SVG-20010904/DTD/svg10.dtd">
<svg version="1.0" xmlns="http://www.w3.org/2000/svg"
 width="1024.000000pt" height="1024.000000pt" viewBox="0 0 1024.000000 1024.000000"
 preserveAspectRatio="xMidYMid meet">
<metadata>
Created by potrace 1.14, written by Peter Selinger 2001-2017
</metadata>
<g transform="translate(0.000000,1024.000000) scale(0.100000,-0.100000)"
fill="#000000" stroke="none">
<path d="M1888 8232 l-218 -2 0 -175 0 -175 -280 0 -280 0 0 -240 0 -240 99 0
99 0 6 -31 c3 -17 6 -56 6 -85 l0 -54 74 0 73 0 7 -37 c3 -21 6 -59 6 -84 0
-45 0 -45 30 -41 17 2 59 1 95 -3 l65 -7 0 -79 0 -79 79 0 78 0 7 -37 c3 -21
6 -64 6 -95 l0 -58 60 0 60 0 0 -95 0 -95 105 0 105 0 0 104 0 105 -70 -4
c-38 -3 -72 0 -75 5 -3 5 -8 45 -12 89 l-6 81 -42 0 c-23 0 -57 3 -74 6 l-31
7 0 76 0 76 67 3 c36 2 70 5 75 8 4 3 8 -36 8 -85 0 -71 3 -91 14 -91 7 0 19
-7 26 -15 14 -17 35 -21 25 -5 -3 6 6 11 22 12 15 0 40 2 56 3 l27 2 0 -78 0
-79 79 0 78 0 7 -52 c3 -29 6 -74 6 -100 l0 -48 -62 0 c-35 0 -74 -3 -87 -7
-23 -6 -24 -8 -18 -85 3 -44 7 -81 9 -83 2 -2 38 -5 80 -6 69 -2 77 -4 82 -23
3 -11 6 -87 6 -168 l0 -148 155 0 155 0 0 -87 0 -88 -355 3 -355 2 0 -177 0
-178 -145 3 -145 3 0 -650 0 -651 136 7 c111 5 137 4 145 -8 5 -8 9 -85 9
-171 l0 -158 110 0 110 0 0 -204 c0 -112 3 -223 6 -247 l6 -44 78 1 78 0 6
-44 c3 -25 6 -67 6 -93 l0 -49 155 0 155 0 0 -171 0 -170 100 3 100 3 0 -112
0 -113 335 0 c256 0 336 3 342 13 6 8 27 10 73 6 l65 -6 -67 -1 -68 -2 0 -390
0 -390 1635 0 1635 0 2 368 c0 202 0 376 0 387 -2 20 4 20 269 20 l272 0 1
105 0 105 166 5 165 5 -1 167 -1 168 156 2 156 3 2 35 c2 19 6 59 9 88 l5 52
99 0 98 0 -2 250 -1 250 123 0 123 0 -3 280 -3 280 118 0 117 0 0 536 0 536
-94 -7 c-146 -11 -136 -25 -136 181 l0 174 -379 0 -379 0 -7 113 c-4 62 -6
138 -4 168 l4 56 -164 7 c-89 3 -200 3 -246 0 l-82 -7 -6 33 c-4 18 -7 63 -7
101 l0 69 -175 0 -175 0 0 -99 0 -98 143 -7 c78 -4 144 -11 145 -17 2 -5 8 -9
13 -9 6 0 7 5 4 10 -3 6 2 10 13 10 18 0 19 -7 15 -152 -2 -84 1 -180 6 -213
9 -52 10 -41 6 72 l-4 133 162 -6 c89 -3 163 -7 165 -9 1 -1 5 -39 9 -84 l6
-81 83 0 84 0 0 -85 0 -84 63 -7 c34 -5 67 -7 73 -6 12 2 24 -64 24 -129 l0
-39 49 0 c27 0 62 -3 79 -6 l31 -6 3 -82 3 -81 83 -3 82 -3 0 -65 c0 -48 4
-66 15 -70 8 -4 15 -12 15 -20 0 -9 10 -14 28 -13 26 0 26 1 5 9 -33 13 -29
16 23 11 32 -2 44 0 40 8 -4 6 -2 11 3 11 6 0 11 -9 11 -19 0 -16 -10 -20 -64
-26 l-63 -7 -7 -52 c-3 -28 -6 -65 -6 -82 l0 -31 -110 -8 c-60 -3 -170 -3
-245 1 l-135 7 0 -92 0 -91 -169 1 c-122 0 -171 3 -175 12 -3 9 -5 9 -5 0 -1
-10 -39 -13 -157 -13 l-156 0 4 58 3 57 38 3 c20 2 37 0 36 -5 -1 -4 -1 -21 0
-36 1 -24 3 -26 21 -17 18 10 20 8 20 -20 0 -16 4 -30 8 -30 5 0 5 24 1 53 -8
63 -4 73 10 21 5 -22 12 -48 15 -59 2 -11 4 19 3 68 -1 64 1 87 11 87 6 0 12
5 12 10 0 6 -4 10 -8 10 -4 0 -9 69 -11 152 -1 84 -4 155 -7 157 -2 2 -4 -70
-4 -161 0 -190 7 -178 -102 -178 l-58 0 0 -85 0 -85 -79 0 c-63 0 -80 3 -85
16 -3 9 -6 87 -6 175 0 87 -3 159 -7 159 -5 0 -7 -117 -5 -260 l3 -260 -159 0
c-87 0 -281 -3 -430 -7 l-272 -6 0 86 0 86 -42 6 c-78 11 -303 1 -302 -12 1
-7 2 -43 4 -80 l2 -68 9 45 c5 25 7 52 4 61 -4 12 1 15 25 11 30 -4 30 -5 10
-19 -12 -8 -20 -25 -20 -41 0 -20 3 -23 9 -13 10 15 51 18 110 7 19 -3 52 -1
73 5 29 7 43 7 53 -1 11 -9 15 -7 21 14 3 15 1 32 -5 40 -9 11 -9 14 1 12 30
-4 37 -18 35 -71 l-2 -55 -380 0 c-209 0 -715 -2 -1125 -5 -410 -3 -856 -2
-992 2 l-248 6 0 84 0 83 -270 0 -270 0 0 90 0 90 63 1 c34 1 54 3 45 6 -10 2
-89 0 -175 -6 -87 -5 -223 -7 -302 -4 l-143 6 6 46 c3 25 10 64 15 86 l9 40 1
-46 c0 -25 -2 -49 -6 -53 -19 -18 -10 -36 18 -36 16 0 29 5 29 10 0 11 59 14
84 4 8 -3 12 -12 9 -20 -3 -8 0 -14 6 -14 7 0 11 28 11 81 l0 81 -175 -7 -175
-8 0 92 0 92 178 -2 177 -2 3 86 3 87 82 0 83 0 -4 90 -4 90 75 0 c64 0 76 -3
80 -17 3 -10 5 29 6 87 l1 105 92 0 93 0 3 93 3 92 69 0 c101 0 100 1 100 -91
l0 -79 -62 0 c-35 0 -73 -3 -86 -7 l-24 -6 3 -172 3 -173 76 -4 c42 -2 82 -8
88 -12 8 -5 12 -36 12 -87 l0 -79 80 0 79 0 6 -32 c3 -18 4 -58 3 -88 l-3 -55
88 -3 87 -3 0 -82 0 -83 74 -3 73 -2 6 68 c4 37 7 199 7 359 l0 290 -85 -4
-85 -5 0 87 0 86 -32 2 c-18 1 -44 3 -58 4 -14 1 -35 3 -47 3 -23 1 -23 2 -23
171 l0 170 -85 0 -84 0 -3 88 -3 87 -87 3 -87 3 -3 82 -3 82 -90 5 -90 5 -3
86 c-3 99 -2 99 -103 99 l-56 0 -2 85 -2 86 80 -2 81 -1 0 -89 c0 -48 4 -90 8
-93 5 -3 47 -7 94 -8 l85 -3 6 -84 c4 -46 8 -85 10 -87 1 -2 37 -5 80 -6 l76
-3 6 -40 c3 -22 6 -60 8 -85 l2 -45 75 0 c87 0 87 -1 89 -102 1 -71 -4 -67 94
-63 l67 2 0 -86 0 -86 79 0 78 0 6 -86 c2 -47 9 -90 15 -96 5 -5 48 -8 96 -6
l86 3 0 -82 c0 -94 -6 -89 103 -96 l57 -4 0 71 c0 39 3 81 6 93 6 20 2 22 -74
28 l-81 7 -3 79 -3 79 88 0 87 0 0 -90 0 -90 163 2 162 3 0 85 0 85 -77 3 -78
3 0 89 0 90 -169 0 c-195 0 -179 -10 -173 108 l4 62 69 0 69 0 0 90 0 90 268
0 269 0 9 -92 9 -93 80 0 80 0 0 -88 0 -87 88 0 87 0 0 -79 c0 -55 4 -80 13
-82 6 -2 83 -3 170 -1 l157 3 0 79 0 80 245 0 c135 0 248 0 253 0 4 0 7 -37 7
-82 l0 -83 -245 -6 c-135 -3 -246 -6 -247 -7 -2 -1 -3 -36 -3 -77 l0 -75 73 0
c137 -1 400 1 411 3 8 1 11 -50 11 -175 l1 -178 -81 -1 c-44 -1 -111 -3 -150
-5 -38 -2 -76 0 -84 5 -8 5 -16 38 -20 87 l-6 79 -165 5 -165 5 -3 88 -3 87
-78 0 c-91 0 -91 0 -91 109 l0 64 -37 -7 c-21 -3 -59 -6 -85 -6 l-48 0 0 -90
0 -90 85 0 85 0 0 -84 0 -83 76 -6 c42 -3 79 -9 82 -12 4 -4 9 -39 12 -78 l5
-72 168 -3 167 -2 2 -73 c1 -39 2 -80 1 -89 0 -16 15 -18 156 -19 86 -1 162
-1 169 0 9 1 12 -22 12 -89 l0 -90 185 0 185 0 0 33 c1 52 18 110 36 124 10 7
37 13 60 13 l43 0 4 -72 c3 -65 12 185 12 335 0 48 3 57 18 57 10 0 15 -4 12
-10 -4 -6 7 -8 27 -4 24 4 29 3 18 -5 -12 -8 -12 -14 -2 -33 7 -13 14 -32 14
-43 1 -14 9 -20 24 -20 12 0 20 3 17 8 -2 4 -11 7 -19 7 -9 0 -14 10 -13 33 1
30 2 30 8 7 6 -22 8 -23 14 -7 10 28 27 10 27 -29 0 -25 -4 -34 -17 -35 -10
-1 -4 -4 12 -8 28 -6 30 -9 36 -66 l6 -60 1 58 c1 31 5 57 10 57 4 0 6 -19 5
-42 l-2 -43 11 45 c11 44 11 45 22 19 6 -15 16 -27 21 -28 6 0 10 -7 10 -13 0
-8 13 -12 33 -12 l32 2 0 -308 c0 -237 -3 -309 -12 -313 -8 -3 -6 -6 5 -6 16
-1 17 22 17 354 l0 354 -87 3 -88 3 -3 83 -3 83 -79 -3 -80 -3 0 183 0 182
-85 0 -85 0 0 -175 0 -176 -94 3 -94 3 5 256 5 256 -32 7 c-18 3 -56 6 -86 6
l-53 0 -6 53 c-4 29 -6 60 -5 67 1 8 2 25 1 38 l-1 22 -342 0 -343 0 3 170 3
170 94 0 95 0 0 -80 0 -80 81 0 82 0 -5 80 -5 80 167 0 167 0 5 -115 c2 -63 8
-118 12 -122 4 -4 41 -9 82 -11 l74 -4 0 131 0 131 -42 2 c-24 1 -52 3 -63 4
-11 1 -28 2 -37 3 -16 1 -18 12 -18 86 l0 85 -510 0 -510 0 0 -44 c0 -24 -3
-64 -6 -90 l-7 -46 -373 0 -374 0 0 -84 0 -83 -52 -7 c-29 -3 -96 -6 -149 -6
l-97 0 -7 90 -7 89 -77 3 -76 3 -3 88 -3 87 -79 0 -80 0 0 90 0 89 -82 3 -83
3 -5 85 -5 85 -85 0 -85 0 -6 150 c-3 83 -7 151 -7 153 -1 1 -40 2 -86 2 l-83
0 -7 31 c-3 17 -6 58 -6 90 l0 59 -80 0 -80 0 0 70 0 70 -80 0 -80 0 0 85 0
85 -91 0 -91 0 4 -155 c2 -85 7 -157 10 -160 3 -4 40 -9 82 -12 l76 -6 0 -61
c0 -86 6 -91 90 -91 l70 0 0 -36 c0 -20 3 -57 6 -83 l7 -46 -82 0 -81 0 0 80
0 80 -90 0 -91 0 3 -77 3 -78 85 -5 85 -5 3 -157 3 -158 -97 0 -96 0 3 168 4
167 -137 3 -138 3 0 318 0 318 135 -5 135 -5 0 96 0 95 -32 -1 c-18 -1 -131
-3 -250 -5z m-232 -555 c3 -2 7 -62 10 -133 4 -71 8 -131 10 -133 2 -2 39 -6
82 -9 l79 -4 2 -52 c1 -28 6 -89 11 -136 16 -142 23 -130 -75 -130 l-85 0 0
85 0 85 -95 0 -95 0 -1 48 c-1 26 -1 70 -1 97 0 28 -2 42 -4 33 -5 -15 -18
-18 -78 -18 l-73 0 -7 38 c-3 20 -6 84 -6 141 l0 104 161 -6 c89 -3 163 -8
165 -10z m1012 -289 c6 -6 12 -25 12 -43 0 -18 3 -47 6 -64 l7 -31 76 0 c70 0
104 -8 102 -24 -1 -3 -1 -40 -1 -81 l0 -75 83 0 84 0 6 -122 c4 -66 7 -145 7
-175 l0 -53 -91 0 -92 0 7 96 7 96 -97 -7 -96 -7 7 91 7 90 -83 3 -84 3 -3
160 -3 160 63 -3 c35 -2 69 -9 76 -14z m-148 -403 l0 -85 -79 0 c-44 0 -83 5
-86 10 -4 6 -3 44 0 85 l7 75 79 0 79 0 0 -85z m2245 -343 c4 -37 9 -75 11
-84 5 -16 -3 -18 -74 -18 l-79 0 -7 38 c-3 20 -6 60 -6 87 l0 50 74 -3 75 -4
6 -66z m-1307 -98 l82 -7 1 -146 c0 -80 3 -157 5 -171 l4 -26 -82 1 -83 0 -3
88 -3 89 -77 -4 -77 -3 -3 88 -3 87 -84 0 c-47 0 -85 4 -85 8 0 4 34 6 75 4
41 -2 75 1 75 5 0 7 55 5 258 -13z m-1001 7 l52 -1 3 -95 3 -95 -77 0 -78 0 0
93 c0 52 3 96 6 99 3 3 13 5 22 3 9 -2 40 -4 69 -4z m217 -244 c3 -29 6 -67 6
-84 0 -30 -3 -33 -29 -33 -15 0 -49 3 -75 6 l-46 7 0 81 0 81 69 -3 68 -4 7
-51z m196 -207 l0 -80 -52 0 c-29 0 -70 -3 -90 -6 l-38 -7 0 87 0 86 90 0 90
0 0 -80z m869 -1 l-1 -80 -91 3 -92 3 -3 78 -3 77 95 0 96 0 -1 -81z m-533
-605 c0 0 -34 1 -73 4 l-73 4 0 89 0 89 65 0 65 0 2 83 c0 46 4 6 8 -93 5 -96
7 -175 6 -176z m132 0 l30 -6 4 -87 c3 -47 5 -87 4 -87 0 -1 -36 -4 -78 -8
l-78 -7 0 101 0 100 44 0 c24 0 57 -3 74 -6z m2580 -22 l62 3 0 -82 0 -83
-169 0 -168 0 -7 31 c-3 17 -6 57 -6 88 l0 56 113 -8 c61 -4 140 -6 175 -5z
m2402 -247 c0 -19 -4 -35 -8 -35 -4 0 -6 16 -4 35 2 19 6 35 8 35 2 0 4 -16 4
-35z m-6047 -189 c36 1 37 0 7 -3 -19 -3 -40 -9 -47 -15 -10 -8 -13 -6 -14 8
0 18 -1 18 -9 -1 -5 -11 -9 -15 -9 -8 -1 7 5 25 12 40 l12 28 3 -25 c3 -22 7
-25 45 -24z m4791 -115 c3 -5 -2 -11 -12 -13 -11 -3 -19 0 -19 8 0 16 23 19
31 5z m-1384 -172 c0 -4 -7 -6 -15 -3 -8 4 -15 10 -15 15 0 4 7 6 15 3 8 -4
15 -10 15 -15z m1313 -629 c3 -47 3 -87 0 -90 -2 -3 -891 -5 -1974 -5 l-1969
0 0 -77 0 -78 250 0 250 0 0 -248 0 -248 90 4 90 4 0 -90 c0 -105 -4 -102 110
-102 77 0 78 0 82 -27 8 -44 10 -272 3 -293 -6 -18 -16 -20 -100 -20 l-93 0
-4 66 c-3 42 -9 69 -19 75 -7 5 -44 9 -81 9 -100 0 -98 -2 -98 104 l0 91 -160
-4 -160 -3 0 166 0 166 -85 0 -85 0 0 90 0 89 -172 -2 -173 -2 -3 252 -2 253
187 2 c104 2 1071 3 2149 3 l1961 0 6 -85z m-4616 -387 c-2 -21 -4 -4 -4 37 0
41 2 58 4 38 2 -21 2 -55 0 -75z m160 -250 c-3 -10 -5 -4 -5 12 0 17 2 24 5
18 2 -7 2 -21 0 -30z m126 -100 c-7 -2 -21 -2 -30 0 -10 3 -4 5 12 5 17 0 24
-2 18 -5z m214 -325 c-2 -13 -4 -3 -4 22 0 25 2 35 4 23 2 -13 2 -33 0 -45z
m1156 -425 c-7 -2 -19 -2 -25 0 -7 3 -2 5 12 5 14 0 19 -2 13 -5z"/>
<path d="M1491 7534 c0 -11 3 -14 6 -6 3 7 2 16 -1 19 -3 4 -6 -2 -5 -13z"/>
<path d="M5981 6594 c0 -77 4 -161 7 -189 l7 -50 74 2 c68 2 73 1 68 -17 -3
-11 -1 -18 4 -14 5 3 9 52 9 110 l0 104 170 0 170 0 2 -72 c2 -104 2 -103 18
-105 8 -1 48 -3 88 -5 l72 -4 0 183 0 183 -329 0 c-181 0 -336 3 -345 6 -14 5
-16 -10 -15 -132z"/>
<path d="M5363 6553 c15 -2 39 -2 55 0 15 2 2 4 -28 4 -30 0 -43 -2 -27 -4z"/>
<path d="M5810 6339 c0 -5 5 -7 10 -4 6 3 10 8 10 11 0 2 -4 4 -10 4 -5 0 -10
-5 -10 -11z"/>
<path d="M5848 6343 c6 -2 18 -2 25 0 6 3 1 5 -13 5 -14 0 -19 -2 -12 -5z"/>
<path d="M4414 6250 c0 -52 1 -74 3 -47 2 26 2 68 0 95 -2 26 -3 4 -3 -48z"/>
<path d="M6483 6250 c0 -25 2 -35 4 -22 2 12 2 32 0 45 -2 12 -4 2 -4 -23z"/>
<path d="M6528 6194 c-3 -3 -89 -5 -192 -5 l-186 0 0 -59 c0 -55 2 -60 23 -61
21 -1 21 -1 -3 -8 -23 -7 -21 -8 15 -14 22 -4 56 -8 75 -9 28 -1 23 -3 -20 -9
-46 -6 -40 -7 37 -5 62 1 97 7 109 17 16 12 17 12 12 -2 -8 -21 55 -25 75 -4
19 18 33 20 20 3 -5 -7 -6 -26 -2 -43 l7 -30 1 28 c1 27 3 28 44 26 23 -2 61
-2 83 -1 l41 2 2 71 c2 107 1 109 -73 109 -34 0 -65 -2 -68 -6z m-158 -144 c0
-5 -2 -10 -4 -10 -3 0 -8 5 -11 10 -3 6 -1 10 4 10 6 0 11 -4 11 -10z"/>
<path d="M5963 6183 c9 -2 23 -2 30 0 6 3 -1 5 -18 5 -16 0 -22 -2 -12 -5z"/>
<path d="M7022 5888 c-1 -126 1 -228 6 -228 4 0 6 69 4 152 -4 279 -8 306 -10
76z"/>
<path d="M7120 6091 c0 -6 4 -13 10 -16 6 -3 7 1 4 9 -7 18 -14 21 -14 7z"/>
<path d="M7127 6033 c3 -7 6 -13 8 -13 2 0 5 6 8 13 3 8 -1 14 -8 14 -7 0 -11
-6 -8 -14z"/>
<path d="M6157 6019 c7 -7 15 -10 18 -7 3 3 -2 9 -12 12 -14 6 -15 5 -6 -5z"/>
<path d="M6333 5965 c0 -27 2 -38 4 -22 2 15 2 37 0 50 -2 12 -4 0 -4 -28z"/>
<path d="M6680 5920 l0 -90 100 0 100 0 0 90 0 90 -100 0 -100 0 0 -90z"/>
<path d="M6483 5900 c0 -36 2 -50 4 -32 2 17 2 47 0 65 -2 17 -4 3 -4 -33z"/>
<path d="M7151 5934 c0 -11 3 -14 6 -6 3 7 2 16 -1 19 -3 4 -6 -2 -5 -13z"/>
<path d="M4250 5750 l0 -90 84 0 c47 0 87 3 90 8 2 4 2 45 -1 90 l-6 82 -83 0
-84 0 0 -90z"/>
<path d="M7351 5824 c0 -11 3 -14 6 -6 3 7 2 16 -1 19 -3 4 -6 -2 -5 -13z"/>
<path d="M7503 5715 c0 -27 2 -38 4 -22 2 15 2 37 0 50 -2 12 -4 0 -4 -28z"/>
<path d="M7183 5700 c0 -25 2 -35 4 -22 2 12 2 32 0 45 -2 12 -4 2 -4 -23z"/>
<path d="M7428 5663 c12 -2 32 -2 45 0 12 2 2 4 -23 4 -25 0 -35 -2 -22 -4z"/>
<path d="M4592 5625 c0 -16 2 -22 5 -12 2 9 2 23 0 30 -3 6 -5 -1 -5 -18z"/>
<path d="M7565 5645 c25 -8 115 -11 115 -4 0 5 -28 9 -62 8 -35 0 -58 -2 -53
-4z"/>
<path d="M3721 5624 c0 -11 3 -14 6 -6 3 7 2 16 -1 19 -3 4 -6 -2 -5 -13z"/>
<path d="M3723 5560 c0 -25 2 -35 4 -22 2 12 2 32 0 45 -2 12 -4 2 -4 -23z"/>
<path d="M7595 5500 l-80 -6 88 -2 c52 -1 87 2 87 8 0 6 -3 9 -7 8 -5 -1 -44
-5 -88 -8z"/>
<path d="M3731 5474 c0 -11 3 -14 6 -6 3 7 2 16 -1 19 -3 4 -6 -2 -5 -13z"/>
<path d="M3753 5475 c0 -6 29 -10 66 -10 l66 0 0 -102 c0 -57 -3 -103 -6 -103
-9 0 -33 -195 -26 -212 3 -7 6 6 6 29 1 23 5 45 11 48 6 4 8 -27 6 -82 -2 -60
-1 -74 4 -43 5 32 7 7 8 -85 l2 -131 -75 -3 c-64 -2 -80 1 -106 20 -25 17 -37
20 -67 14 -20 -4 -62 -8 -92 -9 -45 -1 -55 2 -54 15 1 15 -11 17 -48 10 -4 0
-10 -11 -14 -23 -8 -22 -8 -22 -15 7 l-7 30 -3 -30 c-1 -16 -6 6 -9 50 l-6 80
-2 -81 c-2 -67 1 -83 14 -88 9 -3 123 -6 255 -6 l239 0 0 354 -1 354 -73 4
c-44 2 -73 -1 -73 -7z m-130 -692 c-35 -2 -91 -2 -125 0 -35 2 -7 3 62 3 69 0
97 -1 63 -3z"/>
<path d="M4250 5471 c0 -6 5 -13 10 -16 6 -3 10 1 10 9 0 9 -4 16 -10 16 -5 0
-10 -4 -10 -9z"/>
<path d="M4273 5453 c-16 -34 -17 -103 -2 -103 8 0 10 15 5 48 -4 32 -3 42 4
32 8 -12 10 -10 10 8 0 28 24 25 27 -4 3 -18 2 -18 -5 1 -7 16 -10 11 -16 -23
-3 -24 -2 -51 3 -60 9 -14 11 -12 17 16 4 18 12 31 18 29 17 -7 58 12 51 23
-3 5 0 10 8 10 11 0 14 -16 14 -72 0 -96 0 -97 -42 -84 -36 11 -43 20 -25 31
11 7 14 55 3 55 -4 0 -17 -12 -30 -26 -14 -16 -28 -24 -38 -21 -10 5 -15 0
-16 -16 -1 -17 -2 -18 -6 -4 -4 15 -17 17 -99 17 l-94 0 0 -85 0 -85 185 0
c124 0 185 -4 185 -11 0 -5 5 -7 11 -3 8 5 6 10 -5 16 -14 8 -16 32 -16 173
l0 165 -67 0 c-64 0 -69 -2 -80 -27z m137 9 c0 -4 -18 -6 -40 -4 -22 2 -40 6
-40 8 0 2 18 4 40 4 22 0 40 -3 40 -8z m-127 -250 c-2 -13 1 -21 5 -18 4 2 14
1 22 -5 10 -6 -3 -9 -42 -9 -62 0 -75 9 -57 39 9 13 23 19 43 18 26 -2 31 -6
29 -25z m-96 -18 c-3 -3 -12 -4 -19 -1 -8 3 -5 6 6 6 11 1 17 -2 13 -5z m223
-16 c0 -5 -14 -8 -31 -8 -16 0 -28 3 -26 8 3 4 17 7 31 7 14 0 26 -3 26 -7z
m-58 -18 c36 -5 -3 -7 -117 -7 -102 1 -146 3 -110 7 58 6 59 6 20 12 -22 3 4
3 57 1 54 -3 121 -8 150 -13z"/>
<path d="M4604 5396 c1 -83 9 -115 22 -82 3 9 9 14 13 12 4 -3 73 -7 155 -10
l147 -6 -4 82 -4 83 -165 3 -166 2 2 -84z"/>
<path d="M7340 5400 l0 -80 28 1 c22 1 23 2 5 6 -20 4 -22 9 -20 79 1 41 -1
74 -5 74 -5 0 -8 -36 -8 -80z"/>
<path d="M7403 5473 c9 -2 23 -2 30 0 6 3 -1 5 -18 5 -16 0 -22 -2 -12 -5z"/>
<path d="M7499 5423 c0 -32 -2 -68 -3 -80 -2 -13 1 -23 6 -23 4 0 8 36 8 80 0
44 -2 80 -5 80 -3 0 -5 -26 -6 -57z"/>
<path d="M2514 5360 c0 -58 1 -81 3 -52 2 28 2 76 0 105 -2 28 -3 5 -3 -53z"/>
<path d="M3781 5456 c8 -8 78 -10 85 -3 4 4 -14 7 -41 7 -27 0 -46 -2 -44 -4z"/>
<path d="M7003 5405 c0 -27 2 -38 4 -22 2 15 2 37 0 50 -2 12 -4 0 -4 -28z"/>
<path d="M6373 5400 c0 -25 2 -35 4 -22 2 12 2 32 0 45 -2 12 -4 2 -4 -23z"/>
<path d="M6392 5385 c0 -16 2 -22 5 -12 2 9 2 23 0 30 -3 6 -5 -1 -5 -18z"/>
<path d="M6692 5380 c0 -14 2 -19 5 -12 2 6 2 18 0 25 -3 6 -5 1 -5 -13z"/>
<path d="M6352 5360 c0 -14 2 -19 5 -12 2 6 2 18 0 25 -3 6 -5 1 -5 -13z"/>
<path d="M6332 5330 c0 -14 2 -19 5 -12 2 6 2 18 0 25 -3 6 -5 1 -5 -13z"/>
<path d="M4268 5333 c7 -3 16 -2 19 1 4 3 -2 6 -13 5 -11 0 -14 -3 -6 -6z"/>
<path d="M6723 5323 c20 -2 54 -2 75 0 20 2 3 4 -38 4 -41 0 -58 -2 -37 -4z"/>
<path d="M2693 5245 c0 -38 2 -53 4 -32 2 20 2 52 0 70 -2 17 -4 1 -4 -38z"/>
<path d="M2838 5213 c-2 -54 0 -125 3 -158 4 -39 6 -4 7 98 2 173 -5 214 -10
60z"/>
<path d="M4952 5285 c0 -16 2 -22 5 -12 2 9 2 23 0 30 -3 6 -5 -1 -5 -18z"/>
<path d="M5038 5303 c23 -2 59 -2 80 0 20 2 1 4 -43 4 -44 0 -61 -2 -37 -4z"/>
<path d="M5274 5195 c0 -66 1 -92 3 -57 2 34 2 88 0 120 -2 31 -3 3 -3 -63z"/>
<path d="M7322 5280 c0 -19 2 -27 5 -17 2 9 2 25 0 35 -3 9 -5 1 -5 -18z"/>
<path d="M7673 5215 c0 -44 2 -61 4 -37 2 23 2 59 0 80 -2 20 -4 1 -4 -43z"/>
<path d="M4613 5235 c0 -27 2 -38 4 -22 2 15 2 37 0 50 -2 12 -4 0 -4 -28z"/>
<path d="M3845 5200 c-4 -34 -5 -63 -2 -66 2 -3 7 23 11 57 4 33 5 63 3 66 -3
2 -8 -23 -12 -57z"/>
<path d="M3736 5200 c-8 -49 -12 -270 -5 -270 11 0 21 147 15 213 -3 42 -2 52
3 32 8 -28 9 -28 9 -5 0 14 -3 34 -8 45 -6 17 -8 15 -14 -15z"/>
<path d="M7331 5164 c0 -11 3 -14 6 -6 3 7 2 16 -1 19 -3 4 -6 -2 -5 -13z"/>
<path d="M4950 5148 c0 -4 21 -8 48 -7 52 1 48 6 -10 11 -21 2 -38 0 -38 -4z"/>
<path d="M2684 5135 c-10 -8 -14 -14 -9 -15 15 0 40 18 34 24 -3 3 -14 -1 -25
-9z"/>
<path d="M3781 5136 c-12 -15 -19 -151 -8 -162 16 -16 31 19 35 81 4 62 22 94
22 38 0 -14 3 -24 6 -20 4 3 4 21 0 39 -7 36 -35 48 -55 24z"/>
<path d="M4608 5143 c6 -2 18 -2 25 0 6 3 1 5 -13 5 -14 0 -19 -2 -12 -5z"/>
<path d="M5083 5143 c9 -2 23 -2 30 0 6 3 -1 5 -18 5 -16 0 -22 -2 -12 -5z"/>
<path d="M2521 5061 c1 -56 3 -68 9 -46 4 17 8 49 9 71 l1 42 44 -5 c24 -3 51
-1 59 3 10 6 -9 9 -54 10 l-69 1 1 -76z"/>
<path d="M4466 5131 c-3 -4 6 -6 19 -3 14 2 25 6 25 8 0 8 -39 4 -44 -5z"/>
<path d="M7334 5133 c9 -9 13 -10 61 -12 19 0 35 -6 35 -11 0 -6 6 -17 12 -24
11 -11 15 -11 25 3 11 14 12 13 13 -9 0 -18 3 -21 9 -11 5 8 9 -43 10 -125 0
-75 3 -140 6 -143 3 -2 4 71 3 165 l-3 169 -90 3 c-49 2 -86 -1 -81 -5z"/>
<path d="M4566 5117 c3 -10 9 -15 12 -12 3 3 0 11 -7 18 -10 9 -11 8 -5 -6z"/>
<path d="M4588 5040 c-2 -50 0 -90 5 -90 4 0 7 41 7 90 0 50 -2 90 -4 90 -3 0
-6 -41 -8 -90z"/>
<path d="M2546 5049 c-4 -23 -4 -44 -1 -47 3 -3 5 0 5 6 0 6 8 9 18 6 14 -5
15 -4 2 5 -9 6 -14 22 -12 41 5 45 -4 36 -12 -11z"/>
<path d="M7843 5045 c0 -22 2 -30 4 -17 2 12 2 30 0 40 -3 9 -5 -1 -4 -23z"/>
<path d="M4431 4978 c-1 -27 -3 -28 -56 -28 l-55 0 2 -52 2 -53 3 48 c4 45 6
47 34 47 19 0 29 -5 29 -14 0 -8 5 -18 11 -22 8 -4 9 0 4 15 -4 12 -2 21 4 21
6 0 11 -14 11 -31 0 -16 3 -28 8 -26 4 3 7 -18 7 -46 l0 -52 -60 -6 -60 -6 68
-1 67 -2 -1 78 c0 78 -15 187 -18 130z m6 -70 c-3 -8 -6 -5 -6 6 -1 11 2 17 5
13 3 -3 4 -12 1 -19z"/>
<path d="M2210 4980 c0 -13 20 -13 40 0 12 8 9 10 -12 10 -16 0 -28 -4 -28
-10z"/>
<path d="M2551 4979 c13 -8 97 -13 88 -5 -2 2 -26 6 -53 9 -30 3 -43 1 -35 -4z"/>
<path d="M4523 4953 c9 -2 25 -2 35 0 9 3 1 5 -18 5 -19 0 -27 -2 -17 -5z"/>
<path d="M6683 4920 c0 -25 2 -35 4 -22 2 12 2 32 0 45 -2 12 -4 2 -4 -23z"/>
<path d="M7248 4953 c12 -2 30 -2 40 0 9 3 -1 5 -23 4 -22 0 -30 -2 -17 -4z"/>
<path d="M7340 4927 c0 -20 4 -37 9 -37 9 0 7 57 -3 67 -3 4 -6 -10 -6 -30z"/>
<path d="M3533 4939 c10 -6 30 -8 45 -4 38 9 23 -2 -24 -19 l-39 -14 65 -8
c51 -6 60 -9 40 -15 -19 -5 -15 -7 22 -8 48 -1 72 14 47 30 -11 7 -11 9 3 9 9
0 19 -8 21 -17 3 -12 5 -9 6 8 2 42 -15 49 -113 49 -69 -1 -87 -3 -73 -11z"/>
<path d="M4610 4783 c0 -91 2 -164 4 -162 4 4 15 140 16 197 0 32 23 46 33 20
4 -10 6 -10 6 0 1 6 6 12 12 12 5 0 7 -6 3 -12 -5 -8 0 -7 11 2 14 11 19 12
22 3 7 -21 28 -15 56 16 l26 30 -42 4 c-39 3 -38 4 11 5 31 1 51 -2 47 -7 -9
-16 9 -20 29 -6 10 8 15 18 11 24 -7 12 14 15 31 3 6 -4 14 -14 17 -22 4 -11
6 -10 7 5 l1 20 9 -20 c11 -25 13 -105 3 -106 -5 -1 -23 -3 -42 -5 -19 -2 -37
-7 -40 -10 -3 -3 14 -3 39 0 25 2 49 5 53 5 5 1 7 39 5 86 l-3 85 -162 0 -163
0 0 -167z m28 132 c-3 -3 -9 2 -12 12 -6 14 -5 15 5 6 7 -7 10 -15 7 -18z
m282 13 c0 -11 -32 -10 -49 1 -9 6 -4 8 18 7 17 0 31 -4 31 -8z m-105 -8 c3
-5 1 -10 -4 -10 -6 0 -11 5 -11 10 0 6 2 10 4 10 3 0 8 -4 11 -10z m-172 -35
c4 -8 2 -17 -2 -20 -5 -2 -11 4 -14 15 -6 23 8 27 16 5z"/>
<path d="M5982 4930 c0 -14 2 -19 5 -12 2 6 2 18 0 25 -3 6 -5 1 -5 -13z"/>
<path d="M6144 4855 c0 -49 1 -71 3 -48 2 23 2 64 0 90 -2 26 -3 8 -3 -42z"/>
<path d="M3740 4895 c0 -8 2 -15 4 -15 2 0 6 7 10 15 3 8 1 15 -4 15 -6 0 -10
-7 -10 -15z"/>
<path d="M3515 4879 c-4 -6 -4 -13 -1 -16 3 -4 6 -2 6 4 0 6 11 8 25 5 15 -2
25 0 25 7 0 14 -47 15 -55 0z"/>
<path d="M7061 4874 c0 -11 3 -14 6 -6 3 7 2 16 -1 19 -3 4 -6 -2 -5 -13z"/>
<path d="M5273 4840 c0 -25 2 -35 4 -22 2 12 2 32 0 45 -2 12 -4 2 -4 -23z"/>
<path d="M3727 4853 c-12 -11 -7 -19 13 -20 11 -1 20 4 20 13 0 14 -21 19 -33
7z"/>
<path d="M3847 4811 c-4 -17 -3 -21 5 -13 5 5 8 16 6 23 -3 8 -7 3 -11 -10z"/>
<path d="M4772 4707 l2 -92 3 80 c2 44 9 82 14 86 7 4 4 9 -5 12 -14 6 -16 -5
-14 -86z"/>
<path d="M6330 4788 c0 -4 23 -8 52 -8 28 0 49 2 47 4 -8 9 -99 12 -99 4z"/>
<path d="M4732 4760 c0 -19 2 -27 5 -17 2 9 2 25 0 35 -3 9 -5 1 -5 -18z"/>
<path d="M5528 4783 c6 -2 18 -2 25 0 6 3 1 5 -13 5 -14 0 -19 -2 -12 -5z"/>
<path d="M6780 4780 l-45 -7 48 -1 c26 -1 47 3 47 8 0 6 -1 9 -2 8 -2 0 -23
-4 -48 -8z"/>
<path d="M4952 4733 l1 -48 4 43 c3 27 9 42 18 42 7 0 15 -4 17 -9 2 -5 24
-12 51 -14 28 -4 45 -2 42 4 -4 5 -1 9 4 9 6 0 11 -1 12 -2 0 -2 3 -25 6 -53
7 -70 13 -69 13 2 l0 60 -37 7 c-21 3 -59 6 -85 6 l-48 0 2 -47z"/>
<path d="M5258 4773 c7 -3 16 -2 19 1 4 3 -2 6 -13 5 -11 0 -14 -3 -6 -6z"/>
<path d="M6093 4773 c9 -2 23 -2 30 0 6 3 -1 5 -18 5 -16 0 -22 -2 -12 -5z"/>
<path d="M5450 4717 l5 -52 3 44 c2 24 0 47 -5 52 -4 4 -6 -15 -3 -44z"/>
<path d="M6500 4755 c0 -8 5 -15 11 -15 5 0 8 4 4 9 -3 5 3 12 12 14 14 4 13
5 -4 6 -14 1 -23 -5 -23 -14z"/>
<path d="M6563 4763 c9 -2 25 -2 35 0 9 3 1 5 -18 5 -19 0 -27 -2 -17 -5z"/>
<path d="M6651 4754 c0 -11 3 -14 6 -6 3 7 2 16 -1 19 -3 4 -6 -2 -5 -13z"/>
<path d="M5944 4695 c0 -19 3 -32 8 -29 10 6 11 51 1 57 -5 3 -8 -10 -9 -28z"/>
<path d="M5930 4630 c0 -5 5 -10 11 -10 5 0 7 5 4 10 -3 6 -8 10 -11 10 -2 0
-4 -4 -4 -10z"/>
<path d="M27 103 c-25 -4 -27 -8 -27 -54 0 -48 1 -49 30 -49 30 0 30 1 30 55
0 30 -1 54 -2 54 -2 -1 -15 -4 -31 -6z"/>
</g>
</svg>
